<?xml version="1.0" encoding="iso-8859-1"?>
<!-- Generator: Adobe Illustrator 19.0.0, SVG Export Plug-In . SVG Version: 6.00 Build 0)  -->
<svg version="1.1" id="Capa_1" xmlns="http://www.w3.org/2000/svg" xmlns:xlink="http://www.w3.org/1999/xlink" x="0px" y="0px"
	 viewBox="0 0 480 480" style="enable-background:new 0 0 480 480;" xml:space="preserve">
<g>
	<g>
		<path d="M240,72c-92.784,0-168,75.216-168,168s75.216,168,168,168s168-75.216,168-168C407.894,147.26,332.74,72.106,240,72z
			 M240,392c-83.947,0-152-68.053-152-152S156.053,88,240,88s152,68.053,152,152C391.907,323.909,323.909,391.907,240,392z"/>
	</g>
</g>
<g>
	<g>
		<path d="M480,248v-16h-40.2c-0.787-20.484-4.738-40.724-11.712-60l37.192-15.152l-6.032-14.824l-37.256,15.2
			c-8.832-19.349-20.684-37.172-35.112-52.8l28.48-28.48L404.048,64.64l-28.48,28.48c-15.045-13.898-32.128-25.413-50.656-34.144
			L340.52,21.92l-14.744-6.216l-15.6,37.04C290.257,45.259,269.264,41.023,248,40.2V0h-16v40.2
			c-20.484,0.787-40.724,4.738-60,11.712l-15.16-37.2l-14.808,6.04L157.232,58c-19.349,8.837-37.171,20.691-52.8,35.12l-28.48-28.48
			L64.64,75.952l28.48,28.48c-13.898,15.045-25.413,32.128-34.144,50.656L21.92,139.48l-6.216,14.744l37.04,15.6
			C45.259,189.743,41.023,210.736,40.2,232H0v16h40.2c0.787,20.484,4.738,40.724,11.712,60L14.72,323.128l6.032,14.824l37.256-15.2
			c8.832,19.349,20.684,37.172,35.112,52.8l-28.48,28.48l11.312,11.312l28.48-28.48c15.045,13.898,32.128,25.413,50.656,34.144
			L139.48,458.08l14.744,6.216l15.6-37.04c19.919,7.485,40.912,11.721,62.176,12.544V480h16v-40.2
			c20.484-0.787,40.724-4.738,60-11.712l15.2,37.2l14.808-6.04L322.808,422c19.349-8.837,37.171-20.691,52.8-35.12l28.48,28.48
			l11.312-11.312l-28.48-28.48c13.898-15.045,25.413-32.128,34.144-50.656l37.056,15.608l6.216-14.744l-37.04-15.6
			c7.472-19.922,11.693-40.915,12.504-62.176H480z M240,424c-101.62,0-184-82.38-184-184S138.38,56,240,56s184,82.38,184,184
			C423.885,341.573,341.573,423.885,240,424z"/>
	</g>
</g>
<g>
	<g>
		<path d="M234.912,144.4c-24.843-25.144-65.364-25.388-90.508-0.545c-25.144,24.843-25.388,65.364-0.545,90.508
			c0.182,0.184,0.365,0.367,0.549,0.549c8.084,8.767,19.389,13.865,31.312,14.12c3.436-0.008,6.858-0.432,10.192-1.264
			c14.52-4.488,27.545-12.843,37.68-24.168C261,186.2,250.4,159.888,234.912,144.4z M212.28,212.288
			c-8.138,9.184-18.551,16.062-30.192,19.944c-9.717,2.404-19.954-0.947-26.368-8.632c-18.747-18.745-18.749-49.137-0.004-67.884
			s49.137-18.749,67.884-0.004C233.312,165.432,242.712,181.864,212.28,212.288z"/>
	</g>
</g>
<g>
	<g>
		<rect x="200" y="168" width="16" height="16"/>
	</g>
</g>
<g>
	<g>
		<rect x="312" y="216" width="16" height="16"/>
	</g>
</g>
<g>
	<g>
		<rect x="208" y="312" width="16" height="16"/>
	</g>
</g>
<g>
	<g>
		<rect x="304" y="328" width="16" height="16"/>
	</g>
</g>
<g>
	<g>
		<rect x="232" y="240" width="16" height="16"/>
	</g>
</g>
<g>
	<g>
		<rect x="120" y="264" width="16" height="16"/>
	</g>
</g>
<g>
	<g>
		<rect x="272" y="128" width="16" height="16"/>
	</g>
</g>
<g>
	<g>
		<path d="M312,184c-40,0-40,42.152-40,56c0,13.848,0,56,40,56c30.928,0,56-25.072,56-56C368,209.072,342.928,184,312,184z M312,280
			c-14.4,0-24-6.8-24-40s9.6-40,24-40c22.091,0,40,17.909,40,40S334.091,280,312,280z"/>
	</g>
</g>
<g>
	<g>
		<path d="M255.928,314.736c-2.341-11.465-8.223-21.905-16.816-29.848c-7.942-8.591-18.383-14.468-29.848-16.8
			c-11.971-1.938-24.119,2.231-32.376,11.112c-18.753,18.753-18.753,49.159,0,67.912c18.753,18.753,49.159,18.753,67.912,0
			C253.682,338.855,257.857,326.709,255.928,314.736z M233.456,335.8c-12.669,12.074-32.586,12.074-45.256,0
			c-12.497-12.496-12.498-32.758-0.001-45.255c0,0,0.001-0.001,0.001-0.001c3.872-4.295,9.346-6.8,15.128-6.92
			c1.141,0.001,2.281,0.092,3.408,0.272c8.122,1.831,15.48,6.129,21.064,12.304c6.177,5.583,10.475,12.941,12.304,21.064
			C241.203,324.173,238.696,331.165,233.456,335.8z"/>
	</g>
</g>
<g>
</g>
<g>
</g>
<g>
</g>
<g>
</g>
<g>
</g>
<g>
</g>
<g>
</g>
<g>
</g>
<g>
</g>
<g>
</g>
<g>
</g>
<g>
</g>
<g>
</g>
<g>
</g>
<g>
</g>
</svg>
