<?xml version="1.0" encoding="utf-8"?>
<!-- Generator: Adobe Illustrator 19.1.1, SVG Export Plug-In . SVG Version: 6.00 Build 0)  -->
<svg version="1.1" id="Layer_1" xmlns="http://www.w3.org/2000/svg" xmlns:xlink="http://www.w3.org/1999/xlink" x="0px" y="0px"
	 viewBox="0 0 224.4 278.7" style="enable-background:new 0 0 224.4 278.7;" xml:space="preserve">
<style type="text/css">
	.st0{fill:none;}
	.st1{fill:#F9AA32;}
	.st2{fill:#232F34;}
</style>
<g>
	<g>
		<path class="st0" d="M79.2,121.5v81.4c0,5.5,4.5,10,10,10h24.5v-91.4H79.2z M113.7,174.5V126"/>
		<path class="st1" d="M138.8,212.6h-50c-5.5,0-10-4.5-10-10v-81.4h70v81.4C148.8,208.2,144.3,212.6,138.8,212.6z"/>
		<path class="st1" d="M84.8,48c5.5,4.2,14.3,26.6,14.3,26.6s-24-2.5-29.5-6.7c-5.5-4.2-6.6-12-2.4-17.5S79.3,43.8,84.8,48z"/>
		<path class="st1" d="M63.9,87c5.3-2,25,1.5,25,1.5s-12.3,15.8-17.6,17.8c-5.3,2-11.3-0.6-13.4-6C55.9,95,58.6,89,63.9,87z"/>
		<path class="st0" d="M113.1,121.5v91.4h24.5c5.5,0,10-4.5,10-10v-81.4H113.1z M113.1,126v48.5"/>
		<path class="st2" d="M174.6,28c-15.6-16.4-37.8-25.9-60.9-26v0c-0.1,0-0.2,0-0.3,0c-0.1,0-0.2,0-0.3,0v0C90,2.2,67.9,11.6,52.2,28
			c-14.6,15.3-22,35-21,55.6c0.9,19.2,8.7,28.5,17.7,39.2c9.4,11.3,20.1,24,27.8,52.1v27c0,6.9,5.6,12.5,12.5,12.5h23.9h0.5h23.9
			c6.9,0,12.5-5.6,12.5-12.5v-27c7.7-28.2,18.3-40.9,27.8-52.1c9-10.7,16.8-20,17.7-39.2C196.6,63,189.1,43.3,174.6,28z
			 M145.1,174.3c0,0.1,0,0.1,0,0.2h-31.4h-0.5H81.8c0-0.1,0-0.1,0-0.2V126h31.4h0.5h31.4V174.3z M82.7,121.5
			c0.3-0.4,0.5-0.8,0.8-1.2L104.9,96h8.3h0.5h8.3l21.3,24.3c0.3,0.4,0.6,0.8,0.8,1.2h-30.4h-0.5H82.7z M190.6,83.4
			c-0.8,17.6-7.8,25.8-16.5,36.2c-7.6,9-16.6,19.7-24,39.1v-33.5c0-3-1.1-6-3.1-8.2l-28.8-32.9c-1.2-1.4-2.8-2.2-4.6-2.5v-0.1
			c-0.1,0-0.2,0-0.3,0c-0.1,0-0.2,0-0.3,0v0.1c-1.8,0.3-3.4,1.1-4.6,2.5L79.8,117c-2,2.3-3.1,5.2-3.1,8.2v33.5
			c-7.4-19.4-16.4-30.1-24-39.1c-8.8-10.4-15.7-18.6-16.5-36.2c-0.9-19.2,6-37.6,19.6-51.9C70.6,16,91.6,7.1,113.4,7
			c21.8,0.1,42.8,9,57.5,24.5C184.6,45.8,191.5,64.2,190.6,83.4z"/>
		<path class="st1" d="M113.7,65.2c3-5.2,11.4-20,11.4-25.7c0-6.5-5-11.9-11.4-12.4v0c-0.1,0-0.2,0-0.3,0c-0.1,0-0.2,0-0.3,0v0
			c-6.4,0.5-11.4,5.9-11.4,12.4c0,5.7,8.4,20.5,11.4,25.7v0.9c0.1-0.1,0.2-0.3,0.3-0.5c0.1,0.2,0.2,0.3,0.3,0.5V65.2z"/>
		<path class="st1" d="M142,48c-5.5,4.2-14.3,26.6-14.3,26.6s24-2.5,29.5-6.7s6.6-12,2.4-17.5C155.3,44.9,147.5,43.8,142,48z"/>
		<path class="st1" d="M162.9,87c-5.3-2-25,1.5-25,1.5s12.3,15.8,17.6,17.8c5.3,2,11.3-0.6,13.4-6C170.9,95,168.3,89,162.9,87z"/>
	</g>
	<g>
		<path class="st2" d="M37.3,178.2l0.8-8.6c0.3-3,0.4-5.6,0.3-7.8c-0.1-2.2-0.2-3.4-0.3-3.6c-0.2-0.2-0.7-0.4-1.7-0.6
			c-0.9-0.2-2.5-0.8-4.8-1.7c-1.7-0.7-3.1-1.2-4.3-1.5c-0.2,1.2-0.3,2.9-0.4,5.2s-0.1,3.9,0,4.8c0.3,2.8,0.3,4.9,0.1,6.3
			c-0.4,2.9-1.5,4.3-3.2,4c-1.3-0.2-2.1-0.7-2.5-1.6c-0.4-0.9-0.5-2.2-0.5-4c0-1.1,0-2.3,0-3.7c0-0.7,0-1.6,0-2.7
			c0.1-5.2,0.1-8.3-0.1-9.3l0,0c0-0.3-0.2-0.6-0.5-0.8c-0.3-0.2-1.6-0.7-4-1.4s-4-1.2-5-1.3c-0.7,0-1.1,0.4-1.2,1.1
			c-0.1,0.9-0.2,3.3-0.3,7.1c0,3.9,0,6.3,0,7.2c0.2,2.6,0.2,4.3,0.1,5.1c-0.7,2.3-1.9,3.3-3.8,3.1c-0.9-0.1-1.5-0.5-1.8-1.1
			c-0.6-2-0.7-4.6-0.5-7.9c0.2-2.6,0.3-5.7,0.4-9.4c-0.2-3.3-0.1-6.4,0.3-9.3c0.2-1.5,0.7-2.5,1.4-3.1c0.7-0.6,1.8-0.8,3.2-0.8
			l0.9,0c0.2,0,0.7,0.2,1.6,0.7c2.2,1.1,7.1,2.7,14.8,4.9c7.7,2.2,12,3.4,12.9,3.5c0,0,0.1,0,0.2-0.1c0.1-0.1,0.5-0.3,1.2-0.5
			c0.6-0.2,1.3-0.3,1.9-0.2c0.3,0,0.6,0.1,0.8,0.2c0.4,0.1,0.7,0.6,1,1.4c0.3,0.8,0.4,1.5,0.3,2.1c-0.1,0.9-0.3,1.7-0.5,2.6
			c-0.2,1.5-0.4,6.6-0.5,15.3c0,2.9-0.1,4.4-0.1,4.5l0,0.4c-0.2,3.4-1.5,4.9-3.9,4.6c-0.4-0.1-1-0.4-1.5-1.1
			C37.7,179.4,37.4,178.8,37.3,178.2z"/>
		<path class="st2" d="M17.5,197.9c-4-2.2-7.8-3.5-11.5-3.8c-1.5-0.1-2.7-0.4-3.6-0.8c-0.4-1.6-0.5-2.8-0.1-3.7s1.1-1.6,2.3-2
			c1.1-0.4,2.6-0.3,4.6,0.1c1.9,0.4,5.3,2,10,4.7c0.7,0.4,1.3,0.7,1.9,1c3.9-5,7.3-8,10.1-8.9c2.9-0.9,4.8-0.1,5.7,2.5
			c0.6,1.8-0.4,3.2-3,4.2c-2.7,1-5.2,2.9-7.5,5.7c1.1,0.7,2.4,1.3,3.9,2c0.4,0.2,0.8,0.4,1.2,0.6c3.1,1.5,5.7,2.4,7.9,2.8
			c1.4,0.3,2.3,0.6,2.8,0.9c0.5,0.3,0.8,0.9,1.1,1.7c0.3,0.9,0.2,1.8-0.2,2.7c-0.4,0.9-1.1,1.4-2,1.7c-1.9,0.6-8-2-18.2-7.9
			c-2.6,3.9-4.2,7.8-5,11.5c-0.1,0.5-0.3,0.9-0.5,1.4c-0.3,0.3-0.6,0.4-1,0.6c-0.9,0.3-1.8,0.2-2.7-0.3c-0.9-0.5-1.6-1.3-1.9-2.3
			C10.6,209.4,12.6,204.7,17.5,197.9z"/>
		<path class="st2" d="M26.6,233.3c-1.2,0.6-2.9,1.7-5.1,3.3l-9.1,6.4c-1.5,1-2.7,1.6-3.7,1.5c-0.9,0-1.7-0.4-2.4-1.1
			c-0.6-0.6-0.9-1.4-0.9-2.4c0-1,0.2-1.7,0.8-2.3c1.1-1,2.6-2,4.4-3c10.1-5.4,19.8-12.1,28.8-19.9l0.4-0.4c1.9-1.7,3.2-2.8,3.9-3.2
			s1.5-0.7,2.4-0.6c0.9,0.1,1.8,0.5,2.6,1.5c1.4,1.5,0.9,3.3-1.4,5.4c-0.9,0.9-2.7,2.1-5.3,3.8l-1.6,1.1c4.1-0.8,8-0.9,11.7-0.3
			c3.7,0.6,6.4,1.8,7.9,3.5c1.4,1.6,2.1,3.4,1.9,5.5c-0.1,2.1-1,3.9-2.7,5.4c-4.5,4.1-10.2,6-17,5.9c-6.8-0.2-11.8-1.9-14.9-5.3
			C26.1,236.6,25.8,234.9,26.6,233.3z M54.7,230.2c-1.5-1.7-5.2-2.4-10.9-2.1s-9.6,1.3-11.5,3c-0.5,0.4-0.7,1.1-0.7,1.9
			c0.1,0.8,0.4,1.6,0.9,2.2c1.6,1.8,4.8,2.5,9.7,2.3c4.8-0.2,8.6-1.5,11.1-3.9c0.9-0.8,1.4-1.5,1.5-2.1C55,231,55,230.5,54.7,230.2z
			"/>
		<path class="st2" d="M86.2,224c1.8,1,2.1,2.5,1,4.4c-0.5,0.9-1.2,1.8-2,2.6c-0.8,0.9-2.9,3-6.3,6.4c-2.5,2.5-4.9,5.3-7.3,8.5
			c-2.4,3.2-4.1,5.8-5.2,7.7c-1.2,2.1-2.4,4.6-3.7,7.7c-0.4,0.8-0.6,1.3-0.7,1.5c-0.6,1-1.4,1.6-2.5,1.9c-1.1,0.3-2.1,0.2-2.9-0.3
			c-1.2-0.7-1.7-1.7-1.5-3c0.1-1.4,1-3.4,2.5-6c3.3-5.7,7.8-12.1,13.5-19.1s9.5-11,11.1-11.9S85.1,223.4,86.2,224z"/>
		<path class="st2" d="M95.6,266.5c-6.3,5.2-11.6,7.3-16.1,6.3c-1.6-0.4-2.9-1.4-3.8-2.9c-0.9-1.6-1.1-3.4-0.6-5.4
			c1.1-4.8,4.5-9.5,10-14s10.6-6.2,14.9-5.2c2.2,0.5,3.4,2,3.6,4.4c2.1,0.5,3,1.5,2.6,3.1c-0.2,0.8-0.7,2.1-1.6,4
			c-1.6,3.6-2.7,6.5-3.2,8.8c-0.5,2.3-0.8,4-0.7,5c0.1,1,0.2,1.7,0.3,2c0.1,0.3,0.4,0.7,1.1,1.2c0.7,0.5,0.9,1.1,0.8,1.7
			c-0.2,0.9-0.9,1.6-1.9,2c-1.1,0.4-2.1,0.5-3.2,0.3C94.4,277.1,93.7,273.3,95.6,266.5z M97.4,250.9c-1.8-0.4-4.7,1.1-8.6,4.5
			c-3.9,3.4-6.2,6.5-6.8,9.4c-0.3,1.5-0.2,2.3,0.4,2.5c2.2,0.5,5.3-0.8,9.3-3.9c4-3.1,6.4-6.1,7-9c0.2-0.9,0.2-1.7-0.1-2.3
			C98.3,251.4,98,251,97.4,250.9z"/>
		<path class="st2" d="M115.8,258.6L115.8,258.6c0.4-3.4,0.6-5.4,0.6-5.9c-0.1-1.4,0.2-2.6,0.7-3.5c0.6-1,1.4-1.5,2.5-1.5
			c1.3-0.1,2.3,0.2,3,0.7c0.7,0.6,1.1,1.2,1.2,2c0,0.7-0.2,2.3-0.8,4.7l-0.1,0.6c-0.8,3.7-1.3,6.7-1.4,9c-0.1,2.3-0.1,4.1,0,5.6
			c0.1,1.1,0.3,2.7,0.8,4.5c0.1,0.3,0.1,0.6,0.1,0.8c0,0.4-0.3,1-1.1,1.8c-0.8,0.8-1.6,1.2-2.6,1.2c-2.5,0.1-3.8-1.7-4-5.4
			c-0.2-3.2,0-7.1,0.7-11.7C115.6,260.5,115.7,259.6,115.8,258.6z M128,234.8c0.1,1.3-0.5,2.5-1.6,3.6s-2.2,1.6-3,1.7
			c-1.1,0.1-2.1-0.3-3.1-1.2s-1.4-1.8-1.5-2.7c-0.1-1.3,0.3-2.5,1.1-3.3c0.8-0.9,2-1.4,3.6-1.5c1.3-0.1,2.3,0.2,3.1,0.9
			C127.5,232.9,128,233.8,128,234.8z"/>
		<path class="st2" d="M159.8,263.1c-1.4-1.2-3.2-4-5.3-8.1c-2.1-4.3-3.8-6.2-5.2-5.7c-1.3,0.5-2.5,3.7-3.8,9.5s-1.9,10-1.7,12.5
			c0.1,0.7,0,1.4-0.2,2c-0.3,0.6-0.6,1-1,1.1c-2.7,1-4.5,0.3-5.4-2.1c-0.3-0.8-0.8-2.8-1.4-5.9c-0.8-4-2.2-8.8-4.3-14.2
			c-0.3-0.8-0.3-1.8,0.1-3.1c0.4-1.2,0.9-2,1.7-2.3c1-0.4,1.9-0.4,2.6-0.1c0.7,0.3,1.5,1.5,2.4,3.7c0.6,1.7,1.4,5.1,2.2,10.2
			c0.4-10.4,2.9-16.4,7.5-18.2c4.1-1.6,7.7,0.7,10.8,6.8c3.2,6.2,5.3,9.2,6.2,8.8c0.4-0.2,0.8-0.4,1.3-0.8c0.5-0.5,1-0.8,1.4-0.9
			c0.8-0.3,1.4,0,1.8,1c0.3,0.9,0.1,2.1-0.6,3.5c-0.8,1.5-2,2.5-3.8,3.2C163.2,264.9,161.4,264.6,159.8,263.1L159.8,263.1z"/>
		<path class="st2" d="M209.2,222.6c1.7,0.9,2.3,2.2,1.6,4c-0.8,2.3-2.9,2.9-6.2,1.7c-5.4-1.9-9.9-3.9-13.6-5.8
			c-2.8-1.5-5.7-2.8-8.6-3.8c-0.7-0.2-1.2-0.7-1.5-1.3c-0.3-0.6-0.3-1.3,0-2.1c0.9-2.7,3-3.4,6.2-2.3c1,0.4,3.5,1.8,7.5,4.2
			c2.3,1.5,4.1,2.4,5.2,2.8c-9.3-9-13.2-15.5-11.8-19.6c0.6-1.6,1.7-2.7,3.4-3.3s4.7,0,9.2,1.5c4.1,1.4,6.2,2,6.4,1.6
			c0.1-0.3-1.5-2.1-4.8-5.4c-3.7-3.7-5.9-6.5-6.8-8.5c-0.9-2-1-3.8-0.4-5.5c0.7-2,2-3.1,4-3.4s5.1,0.1,9.2,1.2
			c3.3,0.9,5.8,1.4,7.6,1.5s3.1-0.3,4.1-1.2c0.7-0.7,1.5-0.9,2.4-0.6c0.8,0.3,1.3,1,1.8,2.3c0.4,1.3,0.4,2.4,0.1,3.5
			c-0.6,1.8-2,2.9-4.2,3.3c-2.1,0.4-5.9-0.2-11.4-1.8c-2.6-0.7-4.4-1.1-5.4-1.2c-0.9-0.1-1.5,0.1-1.6,0.5c-0.1,0.4,0.3,1.2,1.3,2.4
			c1,1.2,3.1,3.4,6.2,6.5c2.8,2.8,4.7,5,5.6,6.7c0.9,1.6,1.2,3.1,0.7,4.4c-0.4,1-1.2,1.9-2.4,2.6c-1.3,0.7-4.7,0.1-10.2-1.7
			c-5-1.7-7.5-2.2-7.7-1.7c-0.3,0.7,1.3,3.3,4.7,7.7C203.1,216.4,206.2,219.9,209.2,222.6z"/>
		<path class="st2" d="M207.9,138.2c1.9-0.4,4.5,0.7,7.9,3.3s5.5,5.9,6.4,10c0.7,3.1,0.3,5.7-1.3,8c-1.5,2.2-4.1,3.7-7.5,4.5
			c-5.1,1.1-10.3,0.4-15.6-2.2c-5.3-2.6-8.4-6-9.3-10.1c-0.5-2-0.2-3.8,0.8-5.4c1-1.5,2.4-2.5,4.2-2.9c3.2-0.7,6.6,0.1,10.1,2.5
			s6.4,5.9,8.6,10.4c0.3,0.5,0.6,0.7,1.2,0.6c0.9-0.2,1.6-0.8,2.3-1.7c0.6-1,0.8-2.1,0.5-3.4c-0.8-3.7-3.5-6.9-8.1-9.7
			c-0.9-0.5-1.4-1.1-1.6-1.8C206.2,139.1,206.7,138.4,207.9,138.2z M207.2,157.7c-1.2-2.8-3-5-5.4-6.8s-4.3-2.5-5.9-2.2
			c-0.6,0.1-1.1,0.4-1.4,0.9c-0.3,0.4-0.4,0.9-0.3,1.4c0.4,1.6,1.9,3.1,4.7,4.5C201.6,156.9,204.4,157.6,207.2,157.7z"/>
	</g>
</g>
</svg>
