<?xml version="1.0" encoding="iso-8859-1"?>
<!-- Generator: Adobe Illustrator 19.0.0, SVG Export Plug-In . SVG Version: 6.00 Build 0)  -->
<svg version="1.1" id="Capa_1" xmlns="http://www.w3.org/2000/svg" xmlns:xlink="http://www.w3.org/1999/xlink" x="0px" y="0px"
	 viewBox="0 0 498.672 498.672" style="enable-background:new 0 0 498.672 498.672;" xml:space="preserve">
<circle style="fill:#FFCB57;" cx="337.336" cy="338.672" r="152"/>
<g>
	<path style="fill:#3F3A34;" d="M337.336,178.672c-88.224,0-160,71.776-160,160s71.776,160,160,160s160-71.776,160-160
		S425.56,178.672,337.336,178.672z M337.336,482.672c-79.4,0-144-64.6-144-144s64.6-144,144-144s144,64.6,144,144
		S416.736,482.672,337.336,482.672z"/>
	<path style="fill:#3F3A34;" d="M145.336,450.672c-5.224,0-128-1.64-128-144c0-150.52,103.232-260.72,128.008-284.992
		C162.8,38.736,219.112,98.224,250.8,184.184l15.016-5.528C226.792,72.784,153.72,7.408,150.632,4.672L145.336,0l-5.296,4.672
		c-5.664,5-138.704,124.432-138.704,302c0,158.168,142.56,160,144.016,160c1.072,0,26.72-0.184,56.248-12.48l-6.152-14.776
		C169,450.432,145.544,450.672,145.336,450.672z"/>
	<path style="fill:#3F3A34;" d="M441.336,319.616l22.04-11.016l-7.16-14.312l-22.88,11.44l-24-12v-38.112l14.464-7.232l-7.16-14.312
		l-15.304,7.656l-24-12v-14.856h-16v14.856l-24,12l-24-12v-14.856h-16v14.856l-24,12l-15.304-7.656l-7.16,14.312l14.464,7.232
		v38.112l-24,12l-22.88-11.44l-7.16,14.312l22.04,11.016v38.112l-22.04,11.016l7.16,14.312l22.88-11.44l24,12v38.112l-14.464,7.232
		l7.16,14.312l15.304-7.656l24,12v14.856h16v-14.856l24-12l24,12v14.856h16v-14.856l24-12l15.304,7.656l7.16-14.312l-22.464-11.232
		l-32,16l-24-12v-38.112l24-12l32,16l32-16l22.88,11.44l7.16-14.312l-22.04-11.016V319.616z M369.336,243.616l24,12v38.112l-24,12
		l-32-16l-32,16l-24-12v-38.112l24-12l32,16L369.336,243.616z M313.336,357.728v-38.112l24-12l24,12v38.112l-24,12L313.336,357.728z
		 M249.336,357.728v-38.112l24-12l24,12v38.112l-24,12L249.336,357.728z M305.336,433.728l-24-12v-38.112l24-12l24,12v38.112
		L305.336,433.728z M425.336,357.728l-24,12l-24-12v-38.112l24-12l24,12V357.728z"/>
</g>
<polygon style="fill:#E56565;" points="172.744,261.712 153.336,275.304 153.336,142.792 205.984,105.184 196.688,92.16 
	153.336,123.128 153.336,66.672 137.336,66.672 137.336,203.128 93.984,172.16 84.688,185.184 137.336,222.792 137.336,355.304 
	69.92,308.12 60.752,321.224 137.336,374.84 137.336,498.672 153.336,498.672 153.336,294.84 181.928,274.824 "/>
<g>
</g>
<g>
</g>
<g>
</g>
<g>
</g>
<g>
</g>
<g>
</g>
<g>
</g>
<g>
</g>
<g>
</g>
<g>
</g>
<g>
</g>
<g>
</g>
<g>
</g>
<g>
</g>
<g>
</g>
</svg>
