<?xml version="1.0" encoding="iso-8859-1"?>
<!-- Generator: Adobe Illustrator 19.0.0, SVG Export Plug-In . SVG Version: 6.00 Build 0)  -->
<svg version="1.1" id="Layer_1" xmlns="http://www.w3.org/2000/svg" xmlns:xlink="http://www.w3.org/1999/xlink" x="0px" y="0px"
	 viewBox="0 0 512 512" style="enable-background:new 0 0 512 512;" xml:space="preserve">
<path style="fill:#81A4E3;" d="M18.372,316.083v117.545l101.793,58.773l101.793-58.773V316.083L120.165,257.31L18.372,316.083z
	 M145.634,323.917h16.979v101.876h-16.979v-42.448H94.696v42.448H77.717V323.917h16.979v42.448h50.938V323.917z"/>
<g>
	<path style="fill:#EBE9D3;" d="M154.207,78.372v117.545L256,254.69l101.793-58.773V78.372L256,19.599L154.207,78.372z
		 M298.448,86.207v101.876h-16.979h-50.938h-16.979V86.207h16.979h50.938C281.469,86.207,298.448,86.207,298.448,86.207z"/>
	<rect x="230.529" y="103.186" style="fill:#EBE9D3;" width="50.938" height="67.917"/>
</g>
<path style="fill:#81A4E3;" d="M290.042,316.083v117.545l101.793,58.773l101.793-58.773V316.083L391.835,257.31L290.042,316.083z
	 M417.304,323.917h16.979v101.876h-16.979v-42.448h-50.938v42.448h-16.979V323.917h16.979v42.448h50.938V323.917z"/>
<g>
	<path style="fill:#314E55;" d="M374.773,68.572L256,0L137.228,68.572v137.145L256,274.289l118.772-68.572L374.773,68.572
		L374.773,68.572z M357.793,195.917L256,254.69l-101.793-58.773V78.372L256,19.599l101.793,58.773L357.793,195.917L357.793,195.917z
		"/>
	<path style="fill:#314E55;" d="M1.393,306.283v137.145L120.165,512l118.772-68.572V306.283l-118.772-68.572L1.393,306.283z
		 M221.959,433.628l-101.793,58.773L18.372,433.628V316.083l101.793-58.773l101.793,58.773L221.959,433.628L221.959,433.628z"/>
	<path style="fill:#314E55;" d="M391.835,237.711l-118.772,68.572v137.145L391.835,512l118.772-68.572V306.283L391.835,237.711z
		 M493.628,433.628l-101.793,58.773l-101.793-58.773V316.083l101.793-58.773l101.793,58.773L493.628,433.628L493.628,433.628z"/>
	<polygon style="fill:#314E55;" points="94.696,323.917 77.717,323.917 77.717,425.793 94.696,425.793 94.696,383.345 
		145.634,383.345 145.634,425.793 162.614,425.793 162.614,323.917 145.634,323.917 145.634,366.366 94.696,366.366 	"/>
	<polygon style="fill:#314E55;" points="366.366,323.917 349.386,323.917 349.386,425.793 366.366,425.793 366.366,383.345 
		417.304,383.345 417.304,425.793 434.283,425.793 434.283,323.917 417.304,323.917 417.304,366.366 366.366,366.366 	"/>
	<path style="fill:#314E55;" d="M213.552,86.207v101.876h16.979h50.938h16.979V86.207h-16.979h-50.938
		C230.531,86.207,213.552,86.207,213.552,86.207z M281.469,103.186v67.917h-50.938v-67.917
		C230.531,103.186,281.469,103.186,281.469,103.186z"/>
</g>
<g>
</g>
<g>
</g>
<g>
</g>
<g>
</g>
<g>
</g>
<g>
</g>
<g>
</g>
<g>
</g>
<g>
</g>
<g>
</g>
<g>
</g>
<g>
</g>
<g>
</g>
<g>
</g>
<g>
</g>
</svg>
